<svg id="Capa_1" data-name="Capa 1" xmlns="http://www.w3.org/2000/svg" viewBox="0 0 115.64 144.08"><defs><style>.cls-1{fill:none;stroke:#036;stroke-linecap:round;stroke-miterlimit:10;stroke-width:5px;}.cls-2{fill:#8bc9ef;}.cls-3{fill:#fff;}</style></defs><line class="cls-1" x1="2.5" y1="141.58" x2="113.14" y2="141.58"/><polygon class="cls-1" points="87.73 141.59 27.91 141.59 16.59 62.01 99.05 62.01 87.73 141.59"/><rect class="cls-1" x="9.74" y="48.17" width="96.15" height="13.84" rx="3.66"/><path class="cls-1" d="M552.17,137h11.47a51,51,0,0,1-101.36,0h11.48" transform="translate(-455.14 -60.79)"/><path class="cls-2" d="M550.73,107.83a10.55,10.55,0,0,1-.06,1.13H473.52A10.44,10.44,0,0,1,484,98.51a10.24,10.24,0,0,1,2.67.35,14.6,14.6,0,0,1,22.88-9,15.82,15.82,0,0,1,28,7.9,10.3,10.3,0,0,1,2.74-.37A10.45,10.45,0,0,1,550.73,107.83Z" transform="translate(-455.14 -60.79)"/><rect class="cls-1" x="9.74" y="48.17" width="96.15" height="13.84" rx="3.66"/><circle class="cls-2" cx="86.98" cy="18.99" r="7.4"/><circle class="cls-2" cx="29.73" cy="5.69" r="5.69"/><path class="cls-3" d="M520.42,86.91c5.71-1.86,12.79,2.94,12.55,9.14a.68.68,0,0,1-1.32.19,11.35,11.35,0,0,0-4.18-5.79,12.59,12.59,0,0,0-6.87-2.22.68.68,0,0,1-.18-1.32Z" transform="translate(-455.14 -60.79)"/><path class="cls-3" d="M484.47,62.37c2.74-.64,5.58,2.49,4.58,5.18a.55.55,0,0,1-.72.32.52.52,0,0,1-.33-.35,6.62,6.62,0,0,0-1.32-2.5,6.19,6.19,0,0,0-2.31-1.6.56.56,0,0,1,.1-1.05Z" transform="translate(-455.14 -60.79)"/><path class="cls-3" d="M542.88,74.63c2.74-.64,5.58,2.49,4.58,5.18a.55.55,0,0,1-.72.32.54.54,0,0,1-.34-.35,6.61,6.61,0,0,0-1.31-2.5,6.15,6.15,0,0,0-2.32-1.6.56.56,0,0,1,.11-1.05Z" transform="translate(-455.14 -60.79)"/></svg>