<svg id="Capa_1" data-name="Capa 1" xmlns="http://www.w3.org/2000/svg" viewBox="0 0 252.59 153.49"><defs><style>.cls-1{fill:#036;stroke:#036;stroke-miterlimit:10;stroke-width:3px;}</style></defs><path class="cls-1" d="M339.16,470.71H162.61a.34.34,0,0,0,0,.1H339.17A.34.34,0,0,0,339.16,470.71Z" transform="translate(-124.6 -423.5)"/><path class="cls-1" d="M337.27,522a2.5,2.5,0,0,1-1.5-.5L323,511.85a2.51,2.51,0,0,1,.13-4.1l28.07-18.3a2.49,2.49,0,0,1,3.86,2l1,17.71a2.51,2.51,0,0,1-1.17,2.25l-16.2,10.2A2.45,2.45,0,0,1,337.27,522Zm-8.45-12,8.58,6.44,13.5-8.51L350.26,496Z" transform="translate(-124.6 -423.5)"/><path class="cls-1" d="M369.76,466.92h.05a2.49,2.49,0,0,0,2.05-1.07l3.38-4.87a2.49,2.49,0,0,0,.15-2.59l-4-7.6a2.51,2.51,0,0,0-2.21-1.33H354.51A2.5,2.5,0,0,0,353,450l-5.5,4.34a2.5,2.5,0,0,0-.62,3.21l3.8,6.63-4.18,8.51-2.24-1.08A48.37,48.37,0,0,0,295.94,425h-90.1a48.36,48.36,0,0,0-48.28,46.61l-2.24,1.08-4.18-8.51,3.8-6.63a2.51,2.51,0,0,0-.62-3.21l-5.5-4.34a2.5,2.5,0,0,0-1.55-.54H132.62a2.5,2.5,0,0,0-2.2,1.33l-4,7.6a2.49,2.49,0,0,0,.15,2.59l3.37,4.87a2.52,2.52,0,0,0,2.06,1.07H132l14.75-.31,4,8.23-11.38,5.44a2.49,2.49,0,0,0-.93.77L130,492.57a2.49,2.49,0,0,0-.49,1.49v43.78c0,6.86,1.5,11.68,3.86,15.23V563.8A11.7,11.7,0,0,0,145,575.49h16.27a11.69,11.69,0,0,0,11.66-11l11.85,1.21h.26a2.44,2.44,0,0,0,.93-.18L202.2,559l2,5.14a2.51,2.51,0,0,0,2.33,1.58h88.66a2.49,2.49,0,0,0,2.32-1.58l2-5.14,16.22,6.54a2.53,2.53,0,0,0,.94.18H317l11.86-1.21a11.69,11.69,0,0,0,11.66,11h16.27a11.7,11.7,0,0,0,11.68-11.69V553.07c2.36-3.55,3.86-8.37,3.86-15.23V494.06a2.49,2.49,0,0,0-.49-1.49l-8.54-11.52a2.49,2.49,0,0,0-.93-.77L351,474.84l4-8.23Zm-222.92-5.31-13.58.29-1.74-2.51,2.61-4.93H146.4l3.13,2.47Zm15.77,9.1A43.37,43.37,0,0,1,205.84,430h90.1a43.36,43.36,0,0,1,43.22,40.71.34.34,0,0,1,0,.1H162.6A.34.34,0,0,1,162.61,470.71Zm173.5,5.1-24.66,27.28-26.95,8.53H268.14l-9-4.6a2.43,2.43,0,0,0-1.14-.28H243.76a2.38,2.38,0,0,0-1.14.28l-9,4.6H217.28l-26.95-8.53-24.67-27.28Zm-198.4,74.85c-2-2.82-3.24-6.79-3.24-12.82V516.56l15,15.29-8.65,12a2.54,2.54,0,0,0-.45,1.79l1.17,8.77A15.78,15.78,0,0,1,138,551,2.3,2.3,0,0,0,137.71,550.66Zm23.57,19.83H145a6.69,6.69,0,0,1-6.68-6.69v-5.56a32.26,32.26,0,0,0,5.11,3l.27.13a1.53,1.53,0,0,0,.27.11l.12,0a1.59,1.59,0,0,0,.3.06h.1L168,564A6.69,6.69,0,0,1,161.28,570.49Zm169.87-11.23H331l-13.9,1.42-26.27-10.6a2.5,2.5,0,0,0-1.88,4.64l6,2.42-1.42,3.59H208.26l-1.42-3.59,6-2.42a2.5,2.5,0,1,0-1.87-4.64l-26.27,10.6-13.9-1.42h-.22L147,556.84,145.5,546l8.42-11.73,52.3,7.18.34,0h88.66l.34,0,52.3-7.18L356.28,546l-1.45,10.83Zm32.3,4.54a6.69,6.69,0,0,1-6.68,6.69H340.5a6.69,6.69,0,0,1-6.68-6.48l23.46-2.4h.07a1.86,1.86,0,0,0,.34-.06l.11,0a1.53,1.53,0,0,0,.27-.11l.27-.13a32.26,32.26,0,0,0,5.11-3Zm3.86-26c0,6-1.28,10-3.26,12.85a1.24,1.24,0,0,0-.19.26,15.77,15.77,0,0,1-3.66,3.51l1.17-8.77a2.54,2.54,0,0,0-.45-1.79l-8.65-12,15-15.29Zm-7.68-53.31,7.68,10.35v14.56l-19.48,19.8-52.78,7.24H206.73L154,529.24l-19.48-19.8V494.88l7.68-10.35,13.12-6.28,4.09-1.95L187.08,507a2.47,2.47,0,0,0,1.1.7l28,8.85a2.36,2.36,0,0,0,.75.12h17.35a2.43,2.43,0,0,0,1.14-.28l9-4.6h13.05l9,4.6a2.4,2.4,0,0,0,1.14.28h17.35a2.36,2.36,0,0,0,.75-.12l28-8.85a2.47,2.47,0,0,0,1.1-.7l27.72-30.65,4.09,1.95Zm-7.38-27.6,3.13-2.47h12.27l2.61,4.93-1.74,2.51-13.58-.29Z" transform="translate(-124.6 -423.5)"/><path class="cls-1" d="M164.51,522a2.49,2.49,0,0,1-1.34-.39L147,511.37a2.51,2.51,0,0,1-1.17-2.25l.95-17.71a2.49,2.49,0,0,1,3.86-2l28.07,18.3a2.51,2.51,0,0,1,.13,4.1L166,521.46A2.53,2.53,0,0,1,164.51,522Zm-13.63-14,13.5,8.51L173,510l-21.44-14Z" transform="translate(-124.6 -423.5)"/><path class="cls-1" d="M255.61,520.44v4.71a2.37,2.37,0,0,1-2.36,2.37h-4.72a2.37,2.37,0,0,1-2.36-2.37v-4.71a2.37,2.37,0,0,1,2.36-2.37h4.72A2.37,2.37,0,0,1,255.61,520.44Z" transform="translate(-124.6 -423.5)"/><path class="cls-1" d="M241.33,460.38a2.5,2.5,0,0,1-1.41-4.56l19.12-13a2.5,2.5,0,1,1,2.81,4.14l-19.12,13A2.43,2.43,0,0,1,241.33,460.38Z" transform="translate(-124.6 -423.5)"/></svg>