<svg id="Capa_1" data-name="Capa 1" xmlns="http://www.w3.org/2000/svg" viewBox="0 0 161.69 161.84"><defs><style>.cls-1{fill:#efd65b;}.cls-2{fill:#f3f3f3;stroke:#f3f3f3;stroke-miterlimit:10;stroke-width:0.75px;}</style></defs><path class="cls-1" d="M487.63,437.89A26.4,26.4,0,0,0,479,449.71a26.33,26.33,0,0,0-8.63-11.82A26.39,26.39,0,0,0,479,426.05,26.39,26.39,0,0,0,487.63,437.89Z" transform="translate(-437.06 -408.88)"/><path class="cls-1" d="M529.15,510.48a26.34,26.34,0,0,0-8.64,11.82,26.33,26.33,0,0,0-8.63-11.82,26.39,26.39,0,0,0,8.63-11.84A26.33,26.33,0,0,0,529.15,510.48Z" transform="translate(-437.06 -408.88)"/><path class="cls-2" d="M586.61,409.26a14.56,14.56,0,0,1,5.31,2.35,9.81,9.81,0,0,1,3.85,7.66c.08,7.21.15,14.41,0,21.62-.1,4.51-2.58,7.61-6.75,9.3a1.28,1.28,0,0,0-1,1.47c.07,1.51,0,3,0,4.31a41.6,41.6,0,0,1,5.16,2.75,11.89,11.89,0,0,1,5.18,10.17c-.11,5.07-.48,10.14-.84,15.2-.39,5.63-.88,11.25-1.35,16.87-.49,5.86-1,11.72-1.52,17.58s-.92,11.48-1.4,17.22c-.55,6.62-1,13.25-1.72,19.85A16.66,16.66,0,0,1,576,570.3c-.6,0-1.2,0-1.8,0q-30.39,0-60.76,0c-5.61,0-9.91-2.29-12.58-7.24a37.15,37.15,0,0,1-2.12-5.71c-1.22-3.59-2.38-7.2-3.59-10.79-2.91-8.63,4.7-17.58,13.66-16,6.53,1.19,13,2.55,19.53,3.83l10.11,2a2,2,0,0,0,.35,0h12.91v-1.44c0-9.64.06-19.29,0-28.94a32.65,32.65,0,0,1,8.35-22.47,19.72,19.72,0,0,0,1.69-2.17,2.54,2.54,0,0,0,.34-1.33c0-3.4.14-6.81,0-10.21a13.2,13.2,0,0,1,9.66-13.51l.71-.23c0-1.71,0-3.39,0-5.06,0-.33-.47-.76-.82-.91a10.27,10.27,0,0,1-6.23-6.24,12.41,12.41,0,0,1-.64-3.87c-.06-6.69,0-13.37,0-20.06a10.46,10.46,0,0,1,8.43-10.58,5.54,5.54,0,0,0,.78-.27ZM593,477a4.62,4.62,0,0,0-.74-.13c-3.36,0-6.73-.13-10.08.05A21.74,21.74,0,0,0,569,481.77a48.49,48.49,0,0,0-5.46,5.81,27.19,27.19,0,0,0-6.71,18.12v30.87h1.5c4.68,0,9.36,0,14,0a17.4,17.4,0,0,1,11.57,4.2c1.12,1,2.1,2.11,3.35,3.38C589.23,521.57,591.11,499.28,593,477Zm-7.59,77.8a11.5,11.5,0,0,0-1.51-6.1A12.8,12.8,0,0,0,572,541.79H539.56a8,8,0,0,1-1.55-.08q-6.82-1.34-13.63-2.71c-5.41-1.09-10.81-2.2-16.22-3.24a7.21,7.21,0,0,0-8.46,7.09c0,1.1.32,1.54,1.52,1.53q9.31-.09,18.61,0a4,4,0,0,1,2.53.8c2.94,2.79,5.77,5.71,8.61,8.61a3,3,0,0,0,2.29,1q25.34-.06,50.66,0ZM569.84,430.15c0,3.4,0,6.8,0,10.19a5.22,5.22,0,0,0,5.29,5.34q5.1,0,10.2,0a5.21,5.21,0,0,0,5.31-5.32q0-10.26,0-20.51a5.16,5.16,0,0,0-5.3-5.3q-5,0-10.08,0a5.16,5.16,0,0,0-5.42,5.41C569.83,423.35,569.84,426.75,569.84,430.15Zm14.74,129.77H560c-9.49,0-19,0-28.45,0a3.81,3.81,0,0,1-2.43-.7c-2.92-2.76-5.73-5.64-8.53-8.52a3.37,3.37,0,0,0-2.69-1.16c-5,.07-9.93,0-14.89,0h-1.43c1.11,3.27,2.31,6.32,3.17,9.46a8.82,8.82,0,0,0,8.64,6.18c15.2-.11,30.41,0,45.61,0,5.48,0,11,.05,16.44-.06C579.23,565,582.18,563.23,584.58,559.92Zm8.68-88.23c0-1,0-1.89,0-2.76a7.83,7.83,0,0,0-7.56-7.65c-3.64-.08-7.28-.07-10.91,0a7.42,7.42,0,0,0-7.26,6.13,51.56,51.56,0,0,0-.25,6.93c0,.66,0,1.31,0,2.1a4.89,4.89,0,0,0,.65-.27,28.76,28.76,0,0,1,16.26-4.49C587.15,471.73,590.1,471.69,593.26,471.69ZM577.74,456h5v-5.07h-5Z" transform="translate(-437.06 -408.88)"/><path class="cls-2" d="M458.15,518.37h4.69c2.13,0,3.15,1,3.16,3.17s0,4.32,0,6.48c0,.7.24,1,.94,1.07,10.74,1.76,17.83,7.91,21.26,18.16a30.61,30.61,0,0,1,1.12,7.43c.19,2.46.05,5,0,7.44a7.8,7.8,0,0,1-8.18,8.22H440.7c-2.38,0-3.26-.88-3.26-3.26,0-9.12,0-18.25,0-27.37a10.21,10.21,0,0,1,6.82-10.24,1.25,1.25,0,0,0,.94-1.39c0-2.24,0-4.48,0-6.72a2.73,2.73,0,0,1,3-3c1.48,0,3,0,4.44,0a2.8,2.8,0,0,0,.42-.13v-1.44c0-15,0-29.94,0-44.91a7.8,7.8,0,1,1,15.59,0q0,16.16,0,32.3c0,.44,0,.89,0,1.32a2.56,2.56,0,0,0,5.11,0c.06-2.08-.07-4.17.05-6.25a96.86,96.86,0,0,1,.85-10.37A32.91,32.91,0,0,1,479.3,477a1,1,0,0,0-.25-1.61,23.44,23.44,0,0,1-1.85-1.88c-1.16-1.29-1.22-2.45,0-3.71,2.91-3,5.88-5.95,8.84-8.92q5.1-5.11,10.23-10.22a6.56,6.56,0,0,0,.49-9.45c-1.3-1.59-1.22-2.84.26-4.3l16.25-16.2a2.63,2.63,0,0,1,4.09,0c1.22,1.2,2.44,2.41,3.63,3.64.59.61,1,.69,1.64,0,2.07-2.16,4.21-4.25,6.35-6.34a2.55,2.55,0,0,1,3.75-.09c3.46,3.41,6.91,6.83,10.28,10.34.52.55.55,1.56.8,2.36.14.45.15,1,.44,1.32,1.19,1.29,2.46,2.49,3.7,3.73,1.52,1.52,1.54,2.95,0,4.48l-13,12.93c-.65.65-1.29,1.31-2,1.95-1.55,1.49-2.74,1.5-4.25,0s-2.77-2.87-4.41-4.57c-1.16,1.27-2.15,2.4-3.21,3.47-2.2,2.21-3,2.23-5.47.18-1.71,1.74-3.42,3.51-5.16,5.25q-10.75,10.8-21.54,21.57c-1.6,1.6-2.94,1.54-4.53-.1a5.24,5.24,0,0,1-.56-.92l-.44.16c-.72,1.5-1.54,3-2.15,4.5a30.58,30.58,0,0,0-2.29,11c0,3.24,0,6.49,0,9.73a7.86,7.86,0,0,1-5.62,7.63,7.59,7.59,0,0,1-8.74-3.34,8.93,8.93,0,0,1-1.2-4.29c-.09-11,0-22-.07-33a4.53,4.53,0,0,0-.81-2.38,2.1,2.1,0,0,0-2.49-.7,2.58,2.58,0,0,0-1.84,2.17,5.85,5.85,0,0,0,0,.84q0,22.57,0,45.14Zm26,39c-6.71.46-12.57-1.19-17.33-5.93s-6.42-10.69-6-17.35c-.56,0-.95-.06-1.34-.06H448.3c-3.58,0-5.72,2.16-5.72,5.77q0,12,0,24v1.3h3.85c-1.95-6.57-1.14-10.42,3.11-13.52a9.57,9.57,0,0,1,11.76-.22c5,3.44,5.83,8.26,3.39,13.79,5.78,0,11.42,0,17.06,0a2.33,2.33,0,0,0,2.34-2.29C484.17,561.07,484.1,559.31,484.1,557.32Zm31.26-131.24c-.46.41-.82.71-1.15,1-3.86,3.85-7.71,7.72-11.6,11.54a1.19,1.19,0,0,0-.22,1.67,11.86,11.86,0,0,1-2.28,13.89c-5.63,5.58-11.22,11.2-16.84,16.78-.48.47-.53.79,0,1.27,1,.93,1.95,1.9,2.88,2.88.53.56.86.43,1.36-.08q12.16-12.22,24.4-24.39c.69-.68.61-1.12.16-1.83a12.76,12.76,0,0,1,1-14.77c1.39-1.64,3-3.09,4.46-4.66.21-.23.38-.81.26-.95C517,427.64,516.2,426.9,515.36,426.08Zm3.3,22.86c.14-.11.24-.17.32-.25q9-9,18.06-18c.52-.52.36-.84-.08-1.28-1.74-1.69-3.48-3.38-5.14-5.15-.7-.74-1.13-.7-1.82,0-3.58,3.62-7.23,7.17-10.79,10.82a16,16,0,0,0-3.16,4C514.44,442.48,515.48,446,518.66,448.94ZM466.12,534.3c-1.37,11.05,7.24,19.08,17.66,17.75C483.39,543.88,475.54,535.13,466.12,534.3Zm-10.57,30.83a5.18,5.18,0,1,0-5.13-5.19A5.17,5.17,0,0,0,455.55,565.13Zm75.18-115.52,11.77-11.7-2.37-2.57L528.3,447.06Zm-80.28,79.1h10.24v-5.05H450.45Z" transform="translate(-437.06 -408.88)"/><path class="cls-2" d="M450.34,546.88h-5.08V536.63h5.08Z" transform="translate(-437.06 -408.88)"/><path class="cls-2" d="M453.1,536.61h5v10.24h-5Z" transform="translate(-437.06 -408.88)"/></svg>