<svg 
  id="Capa_1" 
  data-name="Capa 1" 
  xmlns="http://www.w3.org/2000/svg" 
  viewBox="0 0 225.23 225.17">
  <defs>
    <style>
      .cls-1{fill:#efd65b;}
      .cls-2{fill:none;}
    </style>
  </defs>
  <path 
    class="cls-1" 
    d="M383.64,401.1c-5.19,3.74-9.47,9.64-12.34,16.89-2.86-7.25-7.16-13.15-12.33-16.89,5.17-3.74,9.47-9.66,12.33-16.91C374.16,391.44,378.45,397.36,383.64,401.1Z" 
    transform="translate(-349.5 -379.33)" />
  <path 
    class="cls-1" 
    d="M383.64,557.2c-5.18,3.74-9.46,9.64-12.33,16.89-2.86-7.25-7.16-13.15-12.33-16.89,5.17-3.74,9.47-9.65,12.33-16.91C374.16,547.55,378.46,553.46,383.64,557.2Z" 
    transform="translate(-349.5 -379.33)" />
  <path 
    class="cls-1" 
    d="M427.2,582.63c-5.19,3.74-9.47,9.63-12.34,16.88-2.86-7.25-7.16-13.14-12.33-16.88,5.17-3.75,9.47-9.66,12.33-16.91C417.72,573,422,578.88,427.2,582.63Z" 
    transform="translate(-349.5 -379.33)" />
  <path 
    d="M373.57,457.23c9.79-2.69,19.53-5.59,29.32-8.31a8.74,8.74,0,0,0,5.41-4c9.85-15.35,19.82-30.62,29.7-46,5.35-8.31,13-12.29,22.74-12.32,18.94-.08,37.87,0,56.81,0,11.62,0,20.42,5.82,24.88,16.53,5.73,13.77,11.36,27.59,17,41.38,1.42,3.45,1.85,3.74,5.53,3.73,3.24,0,6.48-.05,9.73-.07V441.4c-2.2-.8-4.48-.28-6.72-.34a2.32,2.32,0,0,1-2.54-1.63c-1-2.75-2.25-5.44-3.37-8.15-4.49-10.86-8.67-21.86-13.53-32.56-5.74-12.62-15.86-19.22-29.81-19.32-20.15-.13-40.29,0-60.43,0a20.84,20.84,0,0,0-3.16.15c-10.51,1.69-18.35,7.21-24.05,16.23-9.26,14.64-18.81,29.11-28.19,43.68a5.56,5.56,0,0,1-3.43,2.61c-15.35,4.34-30.68,8.76-46,13.16-3.43,1-4,1.73-4,5.24q0,22.64,0,45.27c0,3.2,1.16,4.35,4.36,4.35,5.06,0,10.11.08,15.16,0,1.76,0,2.49.45,2.79,2.27C375,531.15,394.67,543.5,413,537.85c12.74-3.93,20.54-12.67,23.15-25.84.29-1.47.83-2.06,2.35-2a22.52,22.52,0,0,0,5.19,0c3.26-.54,5,1,6.62,3.61a50.64,50.64,0,0,1,7.53,33.9,51.54,51.54,0,0,1-9.84,24,21.85,21.85,0,0,0-4.19,14c.27,9.58,9.45,18.72,19,19a23,23,0,0,0,14.16-4.3,52.69,52.69,0,0,1,14.12-7v11.15h7.13c0-4.49-.11-8.85,0-13.21a5.12,5.12,0,0,0-2.64-5c-4-2.54-7.92-5.24-11.86-7.88-2.38-1.6-5.65-2.72-6.86-5s-.36-5.58-.41-8.44c0-.6,0-1.21,0-1.81,0-3.61,1.21-5.54,3.52-5.63s3.72,1.88,3.72,5.64v8.68H491V569q0-21.16,0-42.32a14.16,14.16,0,0,1,.07-2.26,3.56,3.56,0,0,1,7.12.13,13.59,13.59,0,0,1,.05,1.81c0,7,0,14,0,21,0,.79-.25,1.65.32,2.43h7V519.25a12.45,12.45,0,0,1,.07-2,3.81,3.81,0,0,1,3.61-3.44,3.75,3.75,0,0,1,3.51,3.52,17.2,17.2,0,0,1,0,2q0,14,0,28.07a3.63,3.63,0,0,0,.37,2.49,39.19,39.19,0,0,0,6.59,0,5.4,5.4,0,0,0,.26-2.57c0-6.94,0-13.88,0-20.82a10.55,10.55,0,0,1,.13-2.25,3.48,3.48,0,0,1,3.59-3.13c2,0,3.11,1.36,3.44,3.3a12.45,12.45,0,0,1,.07,2c0,7,0,14,0,21.05,0,.79-.26,1.66.34,2.39h6.65a5.24,5.24,0,0,0,.29-2.58c0-2.56-.06-5.13.05-7.69a3.86,3.86,0,0,1,3.54-4c2,0,3.51,1.66,3.65,4.11,0,.6,0,1.21,0,1.81,0,10-.21,20.08.1,30.1.14,4.2-.77,7.45-4.21,9.92-2.55,1.82-3.39,4.27-3.2,7.44.27,4.36.06,8.75.08,13.12a3.28,3.28,0,0,0,.32,2.22h6.79c.09-1.18.17-2.27.25-3.37,1,0,1.51.59,2.15.93A19.75,19.75,0,0,0,560,603.56c8.9-2.78,13.37-9.24,14.72-18.19v-3.62c-1-5.16-3.9-9.32-6.55-13.69-11.12-18.31-11.06-36.7.33-54.87,2.74-4.36,5.51-8.61,6.22-13.84v-3.17c-1.25-8-5.14-14.11-12.81-17.32-7-2.91-13.59-1.92-19.74,2.29a58.14,58.14,0,0,1-21.63,9.42A55.51,55.51,0,0,1,478,482.3c-3-2-6.09-3.82-9.73-4.61-12.25-2.64-24.39,7-24.41,19.55a19.57,19.57,0,0,0,.52,5.48c-2.43,0-4.66,0-6.89,0-1.16,0-1.13-1-1.29-1.83-2.89-14-11.27-23-25.06-26.43-17.74-4.45-36.35,8-39.32,25.95-.28,1.74-.87,2.44-2.72,2.38-4-.13-8,0-12.15,0V481h9.36c4.1,0,5-.93,5-5.06,0-5.21.08-10.42,0-15.62C371.23,458.52,371.74,457.73,373.57,457.23Zm81.54,31.29c4.48-4.45,11-5.09,16.55-1.36,8.17,5.49,16.91,9.53,26.7,11.11a63.24,63.24,0,0,0,45.06-9c1.08-.67,2.15-1.4,3.22-2.09,5.77-3.72,12.17-3.08,16.92,1.67,4.26,4.26,4.8,10.92,1.14,16.42-3.31,5-6.57,10-8.53,15.64q-9.87,28.59,7.19,53.57c2.45,3.58,4.37,7.15,3.56,11.73a13,13,0,0,1-19.09,9.16c-1.38-.77-2.66-1.71-4-2.57-2.62-1.67-3.11-4.29-.67-6.13,4.94-3.74,6.29-8.43,6-14.5-.48-10.77-.13-21.57-.13-32.36,0-7.9-5.4-12.57-13.23-11.45l-.94.15c-.57-1.2-.3-2.41-.31-3.58,0-7.6-6.22-12.59-13.65-11l-1,.22c-4.32-10.57-17.43-10.29-21.52,0a13.89,13.89,0,0,0-7.07,0,10.62,10.62,0,0,0-7.57,10.36c0,7.77,0,15.54,0,23.31a5.25,5.25,0,0,1-.24,2.52c-5.13-1-9.55,0-12.61,4.6a9.43,9.43,0,0,0-1.67,5.52c0,4.75.09,9.51,0,14.26a4.55,4.55,0,0,0,2.31,4.29c4.22,2.74,8.39,5.55,13,8.59-5.59,2.17-10,5.63-14.92,8.18-5.19,2.71-11.13,1.24-15.11-3.23a12.79,12.79,0,0,1-1.12-15.47c2.88-4.5,5.95-8.89,7.92-13.91,7.21-18.37,5.81-36-4.38-53-1.05-1.75-2.22-3.41-3.31-5.13C450,499.47,450.61,493,455.11,488.52Zm-51.06-7.42c14.38.35,25.33,11.23,25.17,25.46-.16,15.08-11.9,25.17-25.46,25.11a25.27,25.27,0,0,1-25.15-25.52C378.93,492.18,390.38,480.78,404.05,481.1Zm-40.16-7.53h-7.12V463c0-.75.46-1,1.1-1.19,1.94-.53,3.87-1.09,6-1.69Z" 
    transform="translate(-349.5 -379.33)" />
  <path 
    d="M548.57,442.28c-1.77-4.24-3.32-8.57-5-12.85-3.18-8.22-6.12-16.53-9.62-24.61-3.13-7.21-8.93-10.93-16.93-10.93-17.88,0-35.75.07-53.62,0a17.94,17.94,0,0,0-16.36,9c-8,12.91-15.95,25.91-23.93,38.86-.91,1.48-1.48,3-.62,4.67s2.5,1.88,4.25,1.87q29.42,0,58.83,0c19.6,0,39.21-.09,58.82.08C548.69,448.38,549.83,445.3,548.57,442.28Zm-64.92-1.43H432.84c-.16-.79.42-1.27.76-1.81,6.5-10.6,13.08-21.14,19.52-31.78a12,12,0,0,1,11-6.13h19.49Zm7.41,0V401.54c.76-.67,1.63-.39,2.42-.39q11.08,0,22.18,0c6.43,0,9.89,2.37,12.21,8.36q5.58,14.42,11.15,28.84c.29.76.54,1.55.87,2.52Z" 
    transform="translate(-349.5 -379.33)"/>
  <path 
    d="M490.94,462.63H476.66v-6.95h14.18A44.68,44.68,0,0,1,490.94,462.63Z" 
    transform="translate(-349.5 -379.33)" />
  <path 
    d="M548.94,455.58v7.09H534.58c0-2.09,0-4,0-5.84,0-.82.33-1.26,1.2-1.26Z" 
    transform="translate(-349.5 -379.33)" />
  <path 
    d="M403.79,488.25a18.16,18.16,0,1,0,18.34,18.26A17.88,17.88,0,0,0,403.79,488.25Zm.24,29a10.86,10.86,0,1,1,10.77-10.94A11.13,11.13,0,0,1,404,517.27Z"
    transform="translate(-349.5 -379.33)" />
  <polyline 
    class="cls-2" 
    points="225.23 148.08 225.23 120.02 225.23 116.85" />
  <polyline 
    class="cls-2" 
    points="225.23 68.86 225.23 62.07 225.23 41.77" />
</svg>