<svg 
  id="Layer_2" 
  data-name="Layer 2" 
  xmlns="http://www.w3.org/2000/svg" 
  viewBox="0 0 106.4 60.02">
  <defs>
    <style>
      .cls-1{fill:none;}
      .cls-1,.cls-2{stroke:#231f20;stroke-linecap:round;stroke-linejoin:round;stroke-width:2px;}
      .cls-2{fill:#fff;}
    </style>
  </defs>
  <polygon 
    class="cls-1" 
    points="36.37 1.94 59.86 1.94 68.32 18.48 98.57 21.86 98.57 35.96 3.91 35.96 5.17 18.95 33.88 18.95 36.37 1.94"/>
  <path 
    class="cls-2" 
    d="M463,216.91h-28a4.79,4.79,0,0,0-4.37,2.82l-3.61,8H403.9l-5-8.42a4.81,4.81,0,0,0-4.14-2.35H377.21a4.81,4.81,0,0,0-4.24,2.53l-4.4,8.24h-6.39v9h93.34l7.52-7.39Z"
    transform="translate(-360.95 -191.72)"/>
  <circle 
    class="cls-2" 
    cx="24.53" 
    cy="45.72" 
    r="13.3"/>
  <path 
    class="cls-2" 
    d="M389.69,237.44a4.21,4.21,0,1,1-4.2-4.2A4.2,4.2,0,0,1,389.69,237.44Z" 
    transform="translate(-360.95 -191.72)"/>
  <circle 
    class="cls-2" 
    cx="84.12" 
    cy="45.72" 
    r="13.3"/>
  <path 
    class="cls-2" 
    d="M449.28,237.44a4.21,4.21,0,1,1-4.21-4.2A4.2,4.2,0,0,1,449.28,237.44Z" 
    transform="translate(-360.95 -191.72)"/>
  <polyline 
    class="cls-1" 
    points="105.4 27.03 105.4 38.67 100.61 43.8"/>
  <line 
    class="cls-1" 
    x1="102.08" 
    y1="37.59" 
    x2="105.4" 
    y2="38.67"/>
  <rect 
    class="cls-1" 
    x="98.57" 
    y="27.75" 
    width="3.51" 
    height="7.06"/>
  <polyline 
    class="cls-1" 
    points="4.83 23.52 1 23.52 1 29.68 4.38 29.68"/>
  <polygon 
    class="cls-1" 
    points="39.65 18.95 39.65 5.11 57.55 5.11 64.22 18.95 39.65 18.95"/>
  <line 
    class="cls-1" 
    x1="39.65"
    y1="18.95" 
    x2="39.65" 
    y2="30.41"/>
  <line 
    class="cls-1" 
    x1="64.22" 
    y1="18.95" 
    x2="64.22" 
    y2="35.42"/>
  <line 
    class="cls-1" 
    x1="42.82" 
    y1="22.2" 
    x2="46.47" 
    y2="22.2"/>
  <line 
    class="cls-1" 
    x1="31.26" 
    y1="18.95" 
    x2="31.26" 
    y2="1"/>
  <polyline
    class="cls-1" 
    points="31.26 2.8 9.35 9.47 9.35 18.95"/>
</svg>