<svg 
  id="Capa_1" 
  data-name="Capa 1" 
  xmlns="http://www.w3.org/2000/svg" 
  viewBox="0 0 151.1 31.02">
  <defs>
    <style>
      .cls-1{fill:#036}
    </style>
  </defs>
  <path 
    class="cls-1" 
    d="m417.56 332.71-2.56-8.22h-2.46v-.82h13.34v.82h-2.54l6.42 20.35 5.16-20.35h-4.35v-.82h8.61v.82h-2.84l-7.92 29.73h-3.83l-6.37-19.45-5.59 19.45h-3.74L398 324.49h-2v-.82h14v.82h-3l7 20.61zM456.72 348.8c0-3.57-2.67-4.73-8-6.24s-9.17-3.53-9.17-10c0-4.82 3.57-9.33 10.2-9.33 4 0 6.19 1.33 7.66 1.33.73 0 .94-.3 1.25-.86h.47l.3 8.69h-.69c-2.19-4-5.12-8.26-9.55-8.26-3.1 0-5.25 1.81-5.25 4.35 0 3.18 2.93 4.26 7.27 5.42 4.78 1.29 10.07 2.92 10.07 10.07 0 6.19-4.22 10.28-10.54 10.28-4.18 0-7.79-1.29-9-1.29-.69 0-1 .47-1.3 1.29h-.6l-.38-10.25h.73c2.15 4.3 6.33 9.34 11.06 9.34 2.58-.02 5.47-1.4 5.47-4.54zM477.41 323.67v.82h-2.49v13.34h8.56v-13.34h-2.54v-.82h13.47v.82h-2.54V353h2.54v.82h-13.47V353h2.54v-14h-8.56v14h2.49v.82H464V353h2.54v-28.51H464v-.82zM509.51 323.67v.82h-2.36v13.59l.34-.08 12.13-13.51h-3.4v-.82h7.53v.82h-2.58l-7.4 8.26L524.1 353h2.32v.82h-13.81V353h2l-7.1-13.72-.38.08V353h2.36v.82h-13.1V353h2.36v-28.51h-2.36v-.82z" 
    transform="translate(-396 -323.2)" />
  <path 
    d="M547.1 338.71a26.37 26.37 0 0 0-8.64 11.83 26.36 26.36 0 0 0-8.63-11.83 26.36 26.36 0 0 0 8.63-11.83 26.3 26.3 0 0 0 8.64 11.83z" 
    transform="translate(-396 -323.2)" 
    style="fill:#efd65b" />
</svg>