<svg 
  id="Capa_1" 
  data-name="Capa 1" 
  xmlns="http://www.w3.org/2000/svg" 
  viewBox="0 0 205.59 30.98">
  <defs>
    <style>
      .cls-2{fill:#036}
    </style>
  </defs>
  <path 
    d="M347.47 338.82a26.4 26.4 0 0 0-8.64 11.82 26.38 26.38 0 0 0-8.63-11.82 26.41 26.41 0 0 0 8.63-11.82 26.36 26.36 0 0 0 8.64 11.82z" 
    transform="translate(-141.88 -323.33)" 
    style="fill:#efd65b" />
  <path 
    class="cls-2" 
    d="m163.41 332.82-2.58-8.21h-2.45v-.81h13.32v.81h-2.54l6.41 20.33 5.15-20.33h-4.34v-.81H185v.81h-2.84l-7.9 29.7h-3.83l-6.36-19.43-5.58 19.43h-3.74l-10.83-29.7h-2v-.81h14v.81h-3l7 20.59zM194.21 343.78h-8.51l-3.3 9.28h3.22v.82H179v-.82h2l11-29.52h3.52l10.83 29.52h2v.82h-14v-.82h3zm-8.12-.95h7.78l-3.74-11.25zM227.59 348.89c0-3.56-2.66-4.73-7.94-6.23s-9.16-3.52-9.16-10c0-4.81 3.57-9.32 10.19-9.32 3.95 0 6.18 1.33 7.65 1.33.73 0 .94-.3 1.24-.86h.43l.3 8.68h-.68c-2.19-4-5.12-8.25-9.54-8.25-3.1 0-5.24 1.8-5.24 4.34 0 3.18 2.92 4.25 7.26 5.41 4.77 1.29 10.05 2.92 10.05 10.06 0 6.18-4.21 10.27-10.53 10.27-4.16 0-7.77-1.29-9-1.29-.68 0-.94.47-1.28 1.29h-.61l-.43-10.23h.73c2.15 4.3 6.32 9.32 11 9.32 2.69-.01 5.56-1.41 5.56-4.52zM248.26 323.8v.81h-2.49v13.32h8.55v-13.32h-2.54v-.81h13.45v.81h-2.53v28.45h2.53v.82h-13.45v-.82h2.54v-14h-8.55v14h2.49v.82h-13.41v-.82h2.54v-28.45h-2.54v-.81zM281.56 343.78h-8.51l-3.31 9.28H273v.82h-6.57v-.82h2l10.95-29.52h3.53l10.83 29.52h2v.82h-14.1v-.82h3.05zm-8.13-.95h7.78l-3.74-11.25zM310.13 323.8v.81h-2.37v13.58l.35-.08 12.11-13.5h-3.39v-.81h7.52v.81h-2.58l-7.39 8.25 10.31 20.2H327v.82h-13.78v-.82h2l-7.09-13.71-.39.09v13.62h2.37v.82H297v-.82h2.36v-28.45H297v-.81z" 
    transform="translate(-141.88 -323.33)" />
</svg>