<svg 
  id="Capa_1" 
  data-name="Capa 1" 
  xmlns="http://www.w3.org/2000/svg" 
  viewBox="0 0 205.59 55.31">
  <defs>
    <style>
      .cls-2{fill:#036}
    </style>
  </defs>
  <path 
    d="M347.47 338.82a26.4 26.4 0 0 0-8.64 11.82 26.38 26.38 0 0 0-8.63-11.82 26.41 26.41 0 0 0 8.63-11.82 26.36 26.36 0 0 0 8.64 11.82z" 
    transform="translate(-141.88 -323.33)" 
    style="fill:#efd65b" />
  <path 
    class="cls-2" 
    d="m163.41 332.82-2.58-8.21h-2.45v-.81h13.32v.81h-2.54l6.41 20.33 5.15-20.33h-4.34v-.81H185v.81h-2.84l-7.9 29.7h-3.83l-6.36-19.43-5.58 19.43h-3.74l-10.83-29.7h-2v-.81h14v.81h-3l7 20.59zM194.21 343.78h-8.51l-3.3 9.28h3.22v.82H179v-.82h2l11-29.52h3.52l10.83 29.52h2v.82h-14v-.82h3zm-8.12-.95h7.78l-3.74-11.25zM227.59 348.89c0-3.56-2.66-4.73-7.94-6.23s-9.16-3.52-9.16-10c0-4.81 3.57-9.32 10.19-9.32 3.95 0 6.18 1.33 7.65 1.33.73 0 .94-.3 1.24-.86h.43l.3 8.68h-.68c-2.19-4-5.12-8.25-9.54-8.25-3.1 0-5.24 1.8-5.24 4.34 0 3.18 2.92 4.25 7.26 5.41 4.77 1.29 10.05 2.92 10.05 10.06 0 6.18-4.21 10.27-10.53 10.27-4.16 0-7.77-1.29-9-1.29-.68 0-.94.47-1.28 1.29h-.61l-.43-10.23h.73c2.15 4.3 6.32 9.32 11 9.32 2.69-.01 5.56-1.41 5.56-4.52zM248.26 323.8v.81h-2.49v13.32h8.55v-13.32h-2.54v-.81h13.45v.81h-2.53v28.45h2.53v.82h-13.45v-.82h2.54v-14h-8.55v14h2.49v.82h-13.41v-.82h2.54v-28.45h-2.54v-.81zM281.56 343.78h-8.51l-3.31 9.28H273v.82h-6.57v-.82h2l10.95-29.52h3.53l10.83 29.52h2v.82h-14.1v-.82h3.05zm-8.13-.95h7.78l-3.74-11.25zM310.13 323.8v.81h-2.37v13.58l.35-.08 12.11-13.5h-3.39v-.81h7.52v.81h-2.58l-7.39 8.25 10.31 20.2H327v.82h-13.78v-.82h2l-7.09-13.71-.39.09v13.62h2.37v.82H297v-.82h2.36v-28.45H297v-.81z" 
    transform="translate(-141.88 -323.33)" />
  <path 
    d="M166.76 364.59h1.42v2.34h1.34v1.15h-1.34v5.46a.57.57 0 0 0 .3.58 1.19 1.19 0 0 0 .54.09h.5v1.12a4.18 4.18 0 0 1-.51.1 4.86 4.86 0 0 1-.56 0 1.52 1.52 0 0 1-1.34-.51 2.24 2.24 0 0 1-.35-1.3v-5.54h-1.13v-1.15h1.13zM172.52 363.82H174v1.59h-1.43zm0 3.15H174v8.33h-1.43zM182.85 367.16a3.21 3.21 0 0 1 1.26 1.08 3.71 3.71 0 0 1 .56 1.48 10 10 0 0 1 .12 1.84h-6.08a3.51 3.51 0 0 0 .6 2.05 2 2 0 0 0 1.72.77 2.23 2.23 0 0 0 1.75-.73 2.49 2.49 0 0 0 .51-1h1.39a2.93 2.93 0 0 1-.37 1 3.55 3.55 0 0 1-.68.92 3.29 3.29 0 0 1-1.58.85 4.86 4.86 0 0 1-1.14.12 3.52 3.52 0 0 1-2.63-1.13 4.45 4.45 0 0 1-1.08-3.19 4.8 4.8 0 0 1 1.09-3.27 3.56 3.56 0 0 1 2.84-1.26 3.8 3.8 0 0 1 1.72.47zm.5 3.28A3.68 3.68 0 0 0 183 369a2 2 0 0 0-1.91-1 2.09 2.09 0 0 0-1.61.7 2.68 2.68 0 0 0-.69 1.77zM188.18 366.93h1.39v1.19a4.73 4.73 0 0 1 .9-.9 2.73 2.73 0 0 1 1.58-.48 2.19 2.19 0 0 1 2.23 1.32 3 3 0 0 1 1.11-1 3 3 0 0 1 1.42-.33 2.32 2.32 0 0 1 2.29 1.27 4 4 0 0 1 .33 1.77v5.57H198v-5.82a1.37 1.37 0 0 0-.42-1.15 1.67 1.67 0 0 0-1-.31 2 2 0 0 0-1.42.56 2.42 2.42 0 0 0-.6 1.85v4.87h-1.43v-5.47a2.94 2.94 0 0 0-.2-1.24 1.24 1.24 0 0 0-1.2-.58 2.07 2.07 0 0 0-1.45.61 3.07 3.07 0 0 0-.65 2.24v4.44h-1.4zM203 367h1.37v1.11a3.39 3.39 0 0 1 .93-.89 3 3 0 0 1 1.67-.46 3.14 3.14 0 0 1 2.42 1.09 4.41 4.41 0 0 1 1 3.11 4.75 4.75 0 0 1-1.44 3.9 3.21 3.21 0 0 1-2.12.75 2.85 2.85 0 0 1-1.59-.42 3.55 3.55 0 0 1-.84-.8v4.27H203zm5.29 6.56a4 4 0 0 0 .65-2.47 4.49 4.49 0 0 0-.29-1.72 2.13 2.13 0 0 0-4 .08 5.85 5.85 0 0 0-.29 2 4.22 4.22 0 0 0 .29 1.64 2 2 0 0 0 2 1.3 2 2 0 0 0 1.63-.86zM219.66 367.76a4.23 4.23 0 0 1 1.11 3.17 5.46 5.46 0 0 1-1 3.34 3.54 3.54 0 0 1-3 1.32 3.43 3.43 0 0 1-2.72-1.16 4.66 4.66 0 0 1-1-3.14 5 5 0 0 1 1.06-3.35 3.54 3.54 0 0 1 2.86-1.25 3.75 3.75 0 0 1 2.69 1.07zm-.87 5.57a5.38 5.38 0 0 0 .52-2.36 4.17 4.17 0 0 0-.38-1.9 2.08 2.08 0 0 0-2-1.16 2 2 0 0 0-1.85 1 4.53 4.53 0 0 0-.58 2.37 3.94 3.94 0 0 0 .58 2.22 2 2 0 0 0 1.84.89 1.91 1.91 0 0 0 1.87-1.06zM230 367h1.37v1.11a3.53 3.53 0 0 1 .93-.89 3 3 0 0 1 1.67-.46 3.14 3.14 0 0 1 2.42 1.09 4.41 4.41 0 0 1 1 3.11 4.75 4.75 0 0 1-1.44 3.9 3.21 3.21 0 0 1-2.11.75 2.87 2.87 0 0 1-1.6-.42 3.35 3.35 0 0 1-.83-.8v4.27H230zm5.29 6.56a3.9 3.9 0 0 0 .65-2.47 4.49 4.49 0 0 0-.29-1.72 2.13 2.13 0 0 0-4 .08 5.85 5.85 0 0 0-.29 2 4.22 4.22 0 0 0 .29 1.64 2.14 2.14 0 0 0 3.65.48zM245.13 370.23a.76.76 0 0 0 .65-.4 1.32 1.32 0 0 0 .09-.54 1.15 1.15 0 0 0-.51-1.05 2.7 2.7 0 0 0-1.46-.33 1.86 1.86 0 0 0-1.56.6 2.08 2.08 0 0 0-.34 1h-1.31a2.45 2.45 0 0 1 1-2.16 4.17 4.17 0 0 1 2.24-.6 4.48 4.48 0 0 1 2.39.56 1.91 1.91 0 0 1 .92 1.75v4.82a.63.63 0 0 0 .09.35c.06.09.18.13.38.13H248.17v1a2.62 2.62 0 0 1-.5.12 2.91 2.91 0 0 1-.47 0 1.17 1.17 0 0 1-1.06-.52 2.12 2.12 0 0 1-.24-.77 3.54 3.54 0 0 1-1.23 1 3.8 3.8 0 0 1-1.78.42 2.65 2.65 0 0 1-1.9-.71 2.35 2.35 0 0 1-.74-1.77 2.3 2.3 0 0 1 .73-1.8 3.5 3.5 0 0 1 1.91-.79zm-3 3.8a1.6 1.6 0 0 0 1.05.35 3.17 3.17 0 0 0 1.44-.34 1.93 1.93 0 0 0 1.17-1.87V371a2.26 2.26 0 0 1-.66.28 5.9 5.9 0 0 1-.8.15l-.85.11a3.49 3.49 0 0 0-1.15.32 1.26 1.26 0 0 0-.65 1.17 1.14 1.14 0 0 0 .49.97zM251.18 366.93h1.34v1.44a3.24 3.24 0 0 1 .8-1 2.07 2.07 0 0 1 1.48-.61h.45v1.48h-.46a2 2 0 0 0-1.63.68 2.39 2.39 0 0 0-.57 1.57v4.82h-1.41zM262.56 370.23a.74.74 0 0 0 .64-.4 1.38 1.38 0 0 0-.41-1.59 2.71 2.71 0 0 0-1.47-.33 1.82 1.82 0 0 0-1.55.6 1.88 1.88 0 0 0-.34 1h-1.31a2.43 2.43 0 0 1 1-2.16 4.15 4.15 0 0 1 2.24-.6 4.48 4.48 0 0 1 2.39.56 1.9 1.9 0 0 1 .91 1.75v4.82a.63.63 0 0 0 .09.35c.06.09.19.13.38.13H265.59v1a2.32 2.32 0 0 1-.5.12 2.77 2.77 0 0 1-.46 0 1.17 1.17 0 0 1-1.06-.52 2.12 2.12 0 0 1-.24-.77 3.58 3.58 0 0 1-1.24 1 3.73 3.73 0 0 1-1.77.42 2.63 2.63 0 0 1-1.9-.71 2.35 2.35 0 0 1-.74-1.77 2.27 2.27 0 0 1 .73-1.8 3.5 3.5 0 0 1 1.9-.79zm-3 3.8a1.63 1.63 0 0 0 1.06.35 3.24 3.24 0 0 0 1.44-.34 1.93 1.93 0 0 0 1.17-1.87V371a2.26 2.26 0 0 1-.66.28 5.9 5.9 0 0 1-.8.15l-.85.11a3.49 3.49 0 0 0-1.15.32 1.26 1.26 0 0 0-.65 1.17 1.16 1.16 0 0 0 .47.97zM274.5 363.78h1.36v4.16a3.14 3.14 0 0 1 2.51-1.23 3.29 3.29 0 0 1 2.54 1.07 4.59 4.59 0 0 1 1 3.17 5.38 5.38 0 0 1-1 3.3 3.13 3.13 0 0 1-2.67 1.31 2.74 2.74 0 0 1-1.62-.46 3.9 3.9 0 0 1-.84-.87v1.07h-1.28zm5.37 9.63a4.43 4.43 0 0 0 .57-2.39 3.92 3.92 0 0 0-.57-2.19 1.87 1.87 0 0 0-1.67-.86 2.37 2.37 0 0 0-1.69.71 3.18 3.18 0 0 0-.72 2.34 5.39 5.39 0 0 0 .29 1.92 2.07 2.07 0 0 0 2.08 1.38 1.87 1.87 0 0 0 1.71-.91zM285.15 366.93h1.34v1.44a3.24 3.24 0 0 1 .8-1 2.07 2.07 0 0 1 1.48-.61h.45v1.48h-.46a2 2 0 0 0-1.63.68 2.39 2.39 0 0 0-.57 1.57v4.82h-1.41zM292 363.82h1.43v1.59H292zm0 3.15h1.43v8.33H292zM297.23 363.82h1.41v11.48h-1.41zM302.39 363.82h1.41v11.48h-1.41zM312 370.23a.76.76 0 0 0 .65-.4 1.32 1.32 0 0 0 .09-.54 1.15 1.15 0 0 0-.51-1.05 2.7 2.7 0 0 0-1.46-.33 1.86 1.86 0 0 0-1.56.6 2.08 2.08 0 0 0-.34 1h-1.31a2.44 2.44 0 0 1 1-2.16 4.11 4.11 0 0 1 2.23-.6 4.54 4.54 0 0 1 2.4.56 1.92 1.92 0 0 1 .91 1.75v4.82a.63.63 0 0 0 .09.35c.06.09.19.13.38.13H315.03v1a2.62 2.62 0 0 1-.5.12 2.91 2.91 0 0 1-.47 0A1.15 1.15 0 0 1 313 375a1.93 1.93 0 0 1-.25-.77 3.54 3.54 0 0 1-1.23 1 3.79 3.79 0 0 1-1.77.42 2.67 2.67 0 0 1-1.91-.71 2.35 2.35 0 0 1-.74-1.77 2.3 2.3 0 0 1 .73-1.8 3.54 3.54 0 0 1 1.91-.79zm-3 3.8a1.62 1.62 0 0 0 1.05.35 3.17 3.17 0 0 0 1.44-.34 1.93 1.93 0 0 0 1.17-1.87V371a2.26 2.26 0 0 1-.66.28 5.9 5.9 0 0 1-.8.15l-.84.11a3.42 3.42 0 0 0-1.15.32 1.25 1.25 0 0 0-.66 1.17 1.14 1.14 0 0 0 .45.97zM318 366.93h1.34v1.44a3.24 3.24 0 0 1 .8-1 2.07 2.07 0 0 1 1.48-.61h.45v1.48h-.46a2 2 0 0 0-1.63.68 2.39 2.39 0 0 0-.57 1.57v4.82H318z" 
    transform="translate(-141.88 -323.33)" />
</svg>