<svg 
  id="Capa_1" 
  data-name="Capa 1" 
  xmlns="http://www.w3.org/2000/svg" 
  viewBox="0 0 293.03 173.68">
  <defs>
    <style>
      .cls-1{fill:#efd65b}
      .cls-3{fill:none;stroke-linecap:round;stroke-linejoin:round;stroke-width:5px;stroke:#000}
      .cls-6{fill:#8bc9ef}.cls-7{fill:#fff}
    </style>
  </defs>
  <path 
    class="cls-1" 
    d="M165.76 433.62a26.34 26.34 0 0 0-8.64 11.82 26.33 26.33 0 0 0-8.63-11.82 26.39 26.39 0 0 0 8.63-11.84 26.33 26.33 0 0 0 8.64 11.84zM394 554.78a26.34 26.34 0 0 0-8.64 11.82 26.33 26.33 0 0 0-8.63-11.82 26.39 26.39 0 0 0 8.63-11.84 26.33 26.33 0 0 0 8.64 11.84zM140.6 417.15A26.25 26.25 0 0 0 132 429a26.47 26.47 0 0 0-8.63-11.82 26.54 26.54 0 0 0 8.63-11.87 26.32 26.32 0 0 0 8.6 11.84z" 
    transform="translate(-100.95 -401.81)" />
  <path 
    class="cls-3" 
    d="M104.89 25.69H195a45.81 45.81 0 0 1 45.79 45.81v0h0H59.08h0v0a45.81 45.81 0 0 1 45.81-45.81zM149.94 107.43h-7.13l-9.53 4.88h-17.34l-27.96-8.85-28.9-31.96H240.79l-28.9 31.96-27.95 8.85h-17.35l-9.53-4.88h-7.12" />
  <path 
    class="cls-3" 
    d="M149.94 137.17h-44.33l-53.8-7.38-20.79-21.14v-16.4l8.53-11.52 19.53-9.33H240.8l19.52 9.33 8.54 11.52v16.4l-20.8 21.14-53.79 7.38h-44.33" />
  <path 
    class="cls-3" 
    d="M369.81 510.46v27.38c0 14-6.57 18.26-12.76 21.28l-40.32 4.12-18.55-7.48-8.3-3.35" 
    transform="translate(-100.95 -401.81)" />
  <path 
    class="cls-3" 
    d="m102.64 153.95 2.97 7.48h88.66l2.96-7.48" />
  <path
    class="cls-3" 
    d="m211.9 552.41-8.3 3.35-18.55 7.48-40.32-4.12c-6.19-3-12.76-7.32-12.76-21.28v-27.38" 
    transform="translate(-100.95 -401.81)" />
  <path 
    class="cls-3" 
    d="m256.1 157.31 1.83-13.76-9.87-13.76M43.77 157.31l-1.83-13.76 9.87-13.76M223.5 108.04l28.07-18.31.94 17.72-16.19 10.2-12.82-9.61z" />
  <path 
    class="cls-3" 
    d="M366 552.31v11.49a9.18 9.18 0 0 1-9.18 9.19H340.5a9.18 9.18 0 0 1-9.19-9.19v-2" 
    transform="translate(-100.95 -401.81)" />
  <path 
    class="cls-3" 
    d="m252.51 62.28-4.45-7.78 5.5-4.34h14.64l4.03 7.59-3.37 4.87-16.35-.34zM246.66 74.2l5.86-11.92M76.37 108.04 48.3 89.73l-.94 17.72 16.19 10.2 12.82-9.61z" />
  <path 
    class="cls-3" 
    d="M135.83 552.31v11.49A9.18 9.18 0 0 0 145 573h16.27a9.18 9.18 0 0 0 9.19-9.19v-2" 
    transform="translate(-100.95 -401.81)" />
  <path 
    class="cls-3" 
    d="m47.36 62.28 4.45-7.78-5.5-4.34H31.67l-4.03 7.59 3.38 4.87 16.34-.34zM53.22 74.2l-5.86-11.92" />
  <rect 
    x="145.71" 
    y="116.76" 
    width="8.45" 
    height="8.45" 
    rx="1.87" 
    style="stroke-miterlimit:10;stroke:#000" />
  <path 
    style="stroke:#737373;fill:none;stroke-linecap:round;stroke-linejoin:round;stroke-width:5px" 
    d="m140.38 56.08 19.12-13" />
  <circle 
    class="cls-6" 
    cx="214.42" 
    cy="18.58" 
    r="18.57" />
  <path 
    class="cls-7" 
    d="M316.27 405.78c7.7-.78 14.78 7.17 13 14.73a.81.81 0 0 1-1.59-.08 17.19 17.19 0 0 0-1.17-4.59 14.46 14.46 0 0 0-10.36-8.46.81.81 0 0 1 .1-1.6z" 
    transform="translate(-100.95 -401.81)" />
  <circle 
    class="cls-6" 
    cx="230.72" 
    cy="35.96" 
    r="12.53" />
  <path 
    class="cls-7" 
    d="M334 428.17c5.16.36 9 6.49 6.93 11.31a.56.56 0 0 1-.71.29.54.54 0 0 1-.33-.54 9.81 9.81 0 0 0-6.14-10 .54.54 0 0 1 .25-1z" 
    transform="translate(-100.95 -401.81)" />
  <circle 
    class="cls-6" 
    cx="253" 
    cy="10.09" 
    r="6.27" />
  <path 
    class="cls-7" 
    d="M355.1 407.1a4.26 4.26 0 0 1 3.46 5.66.27.27 0 0 1-.52-.12 4.88 4.88 0 0 0-3.06-5 .27.27 0 0 1 .12-.52z" 
    transform="translate(-100.95 -401.81)" />
  <circle 
    class="cls-6" 
    cx="8.39" 
    cy="125.89" 
    r="8.39" />
  <path 
    class="cls-7"
    d="M103.2 530.55a5.66 5.66 0 0 1 .83-7.33c.53-.51 2.59-1.94 3-.81a.53.53 0 0 1-.2.54 7.08 7.08 0 0 0-2.61 7.15.55.55 0 0 1-1 .45z" 
    transform="translate(-100.95 -401.81)" />
</svg>