<svg id="Capa_1" data-name="Capa 1" xmlns="http://www.w3.org/2000/svg" viewBox="0 0 128.09 145"><defs><style>.cls-1,.cls-2,.cls-3,.cls-4,.cls-5{fill:none;stroke:#036;}.cls-1,.cls-4{stroke-miterlimit:10;stroke-width:5px;}.cls-2,.cls-3,.cls-5{stroke-linejoin:round;}.cls-2,.cls-3{stroke-width:4px;}.cls-3,.cls-4,.cls-5{stroke-linecap:round;}.cls-5{stroke-width:3px;}.cls-6{fill:#efd65b;}</style></defs><path class="cls-1" d="M30,31.69H49.4A66.58,66.58,0,0,1,116,98.27v37.05a7.17,7.17,0,0,1-7.17,7.17H33.14A7.17,7.17,0,0,1,26,135.33V35.72A4,4,0,0,1,30,31.69Z"/><path class="cls-2" d="M504.29,148H499a23.63,23.63,0,0,1-23.63-23.63V111A68.14,68.14,0,0,1,504.29,148Z" transform="translate(-402.94 -59.87)"/><path class="cls-2" d="M428.91,185.67H452a10.56,10.56,0,0,0,10.56-10.56V120.75A10.56,10.56,0,0,0,452,110.19H428.91" transform="translate(-402.94 -59.87)"/><line class="cls-3" x1="85.52" y1="110.57" x2="103.88" y2="110.57"/><line class="cls-3" x1="81.83" y1="120.67" x2="103.88" y2="120.67"/><line class="cls-3" x1="81.83" y1="130.78" x2="103.88" y2="130.78"/><line class="cls-4" x1="2.5" y1="142.5" x2="125.59" y2="142.5"/><rect class="cls-1" x="31.22" y="21.62" width="23.01" height="10.07"/><rect class="cls-1" x="25.33" y="2.5" width="34.78" height="19.12" rx="2.33"/><line class="cls-5" x1="34.18" y1="2.5" x2="34.18" y2="21.62"/><line class="cls-5" x1="42.72" y1="2.5" x2="42.72" y2="21.62"/><line class="cls-5" x1="51.27" y1="2.5" x2="51.27" y2="21.62"/><path class="cls-6" d="M443.57,142.79c-8.17,5.91-14.94,15.21-19.46,26.66-4.52-11.45-11.31-20.75-19.46-26.66,8.15-5.9,14.94-15.23,19.46-26.68C428.61,127.56,435.4,136.89,443.57,142.79Z" transform="translate(-402.94 -59.87)"/></svg>