<svg id="Capa_1" data-name="Capa 1" xmlns="http://www.w3.org/2000/svg" viewBox="0 0 141.94 158.12"><defs><style>.cls-1,.cls-6,.cls-7{fill:none;}.cls-1,.cls-4,.cls-5,.cls-6,.cls-7{stroke:#036;}.cls-1,.cls-4,.cls-6{stroke-miterlimit:10;}.cls-1,.cls-7{stroke-width:5px;}.cls-2,.cls-4,.cls-5{fill:#036;}.cls-3{fill:#efd65b;}.cls-4,.cls-5,.cls-6{stroke-width:3px;}.cls-5,.cls-7{stroke-linejoin:round;}</style></defs><path class="cls-1" d="M692.72,202.37H623.17a15.73,15.73,0,0,1-15.73-15.73V75.2a15.73,15.73,0,0,1,15.73-15.73H703A15.73,15.73,0,0,1,718.68,75.2v90.72" transform="translate(-604.94 -56.97)"/><path class="cls-2" d="M640.72,84.18l-1.06-3.4h-1v-.34h5.52v.34h-1l2.65,8.42,2.14-8.42h-1.8v-.34h3.56v.34h-1.17l-3.28,12.3h-1.58L641,85l-2.31,8h-1.55l-4.49-12.3h-.84v-.34h5.79v.34h-1.25l2.91,8.53Z" transform="translate(-604.94 -56.97)"/><path class="cls-2" d="M656.92,90.84c0-1.48-1.1-2-3.29-2.58s-3.79-1.46-3.79-4.15a3.89,3.89,0,0,1,4.22-3.86,18.54,18.54,0,0,1,3.17.55c.3,0,.39-.12.51-.36h.2l.12,3.6h-.28c-.91-1.64-2.12-3.42-3.95-3.42-1.29,0-2.18.75-2.18,1.8,0,1.32,1.21,1.76,3,2.24,2,.54,4.17,1.21,4.17,4.17a4.07,4.07,0,0,1-4.36,4.25,25.33,25.33,0,0,1-3.72-.53c-.29,0-.4.2-.54.53H650l-.18-4.23h.31c.89,1.78,2.61,3.86,4.57,3.86A2,2,0,0,0,656.92,90.84Z" transform="translate(-604.94 -56.97)"/><path class="cls-2" d="M665.49,80.44v.34h-1V86.3H668V80.78h-1v-.34h5.57v.34h-1V92.57h1v.34H667v-.34h1V86.76h-3.55v5.81h1v.34h-5.56v-.34H661V80.78h-1.05v-.34Z" transform="translate(-604.94 -56.97)"/><path class="cls-2" d="M678.77,80.44v.34h-1v5.63l.14,0,5-5.59h-1.41v-.34h3.12v.34h-1.07l-3.06,3.42,4.27,8.37h1v.34h-5.71v-.34h.83L678,86.89l-.16,0v5.65h1v.34h-5.43v-.34h1V80.78h-1v-.34Z" transform="translate(-604.94 -56.97)"/><path class="cls-3" d="M694.32,86.67a10.9,10.9,0,0,0-3.58,4.89,10.88,10.88,0,0,0-3.57-4.89,11,11,0,0,0,3.57-4.9A11,11,0,0,0,694.32,86.67Z" transform="translate(-604.94 -56.97)"/><path class="cls-4" d="M681.09,188.59H629.31a4.23,4.23,0,0,1-4.23-4.23v-5.1a4.24,4.24,0,0,1,4.23-4.23h44.8s-1.43,3.47.78,6.22C676.57,183.35,679.24,186.4,681.09,188.59Z" transform="translate(-604.94 -56.97)"/><path class="cls-4" d="M686.78,188.59" transform="translate(-604.94 -56.97)"/><polygon class="cls-5" points="89.75 118.06 80.94 118.06 89.75 128.46 89.75 118.06"/><rect class="cls-6" x="20.14" y="57.62" width="75.96" height="13.56" rx="4.23"/><path class="cls-6" d="M694.69,154.52H629.31a4.23,4.23,0,0,1-4.23-4.23v-5.1a4.24,4.24,0,0,1,4.23-4.23h67.5a4.21,4.21,0,0,1,3.47,1.82" transform="translate(-604.94 -56.97)"/><circle class="cls-2" cx="28.5" cy="90.77" r="1.69"/><circle class="cls-2" cx="36.99" cy="90.77" r="1.69"/><circle class="cls-2" cx="45.47" cy="90.77" r="1.69"/><circle class="cls-2" cx="53.96" cy="90.77" r="1.69"/><circle class="cls-2" cx="62.44" cy="90.77" r="1.69"/><path class="cls-7" d="M744.38,175.67v24.5A12.42,12.42,0,0,1,732,212.59H707.12a12.37,12.37,0,0,1-8.78-3.63h0L697,207.36l-21.92-25.87a6.21,6.21,0,1,1,9.48-8l10.14,12V149a6.22,6.22,0,0,1,10.61-4.39,6.15,6.15,0,0,1,1.82,4.39v21.43a6.21,6.21,0,0,1,12.42,0,6.21,6.21,0,0,1,10.6-4.39c1.13,1.12,2.05,5,2.27,7.11,2.28-2.46,3.66-3.69,5.76-3.69a6.21,6.21,0,0,1,6.21,6.22Z" transform="translate(-604.94 -56.97)"/></svg>