<svg id="Capa_1" data-name="Capa 1" xmlns="http://www.w3.org/2000/svg" viewBox="0 0 115.01 126.99"><defs><style>.cls-1{fill:#efd65b;}</style></defs><path class="cls-1" d="M685.66,363c-8.31,6-15.19,15.46-19.79,27.09-4.6-11.63-11.49-21.09-19.79-27.09,8.3-6,15.19-15.5,19.79-27.13C670.45,347.48,677.35,357,685.66,363Z" transform="translate(-646.08 -263.08)"/><path class="cls-1" d="M695.65,286.45c-7.16,5.17-13.09,13.32-17,23.34-4-10-9.9-18.17-17.05-23.34,7.15-5.17,13.09-13.35,17.05-23.37C682.55,273.1,688.49,281.28,695.65,286.45Z" transform="translate(-646.08 -263.08)"/><path class="cls-1" d="M761.09,332c-14,10.07-25.48,25.94-33.2,45.46-7.71-19.52-19.28-35.39-33.2-45.46,13.92-10.08,25.49-26,33.2-45.51C735.57,306,747.14,321.87,761.09,332Z" transform="translate(-646.08 -263.08)"/></svg>